# xmcd CD database file
#
# Track frame offsets:
#	150
#	22753
#	46069
#	63553
#	89202
#	105410
#	132660
#	160117
#	181447
#
# Disc length: 2733 seconds
#
# Revision: 0
# Processed by: cddbd v1.5.2PL0 Copyright (c) Steve Scherf et al.
# Submitted via: cdripper 1,0,43,1226
#
DISCID=730aab09
DTITLE=Loreena McKennitt - The Wind That Shakes The Barley
DYEAR=2010
DGENRE=New Age
TTITLE0=As I Roved Out
TTITLE1=On a Bright May Morning
TTITLE2=Brian Boru's March
TTITLE3=Down By the Sally Gardens
TTITLE4=The Star of the County Down
TTITLE5=The Wind that Shakes the Barley
TTITLE6=The Death of Queen Jane
TTITLE7=The Emigration Tunes
TTITLE8=The Parting Glass
EXTD=YEAR: 2010
EXTT0=
EXTT1=
EXTT2=
EXTT3=
EXTT4=
EXTT5=
EXTT6=
EXTT7=
EXTT8=
PLAYORDER=
